HIERARCHY
ROOT Hips
{
  OFFSET 5.80788e-005 67.184 3.4734
  CHANNELS 6 Xposition Yposition Zposition Zrotation Xrotation Yrotation
  JOINT Chest
  {
    OFFSET 0 8.7983 -4.7612
    CHANNELS 3 Zrotation Xrotation Yrotation
    JOINT Chest2
    {
      OFFSET 0 8.0291 0.4195
      CHANNELS 3 Zrotation Xrotation Yrotation
      JOINT Chest3
      {
        OFFSET 0 9.9351 -2.2114
        CHANNELS 3 Zrotation Xrotation Yrotation
        JOINT Neck
        {
          OFFSET 0 22.3885 -0.4656
          CHANNELS 3 Zrotation Xrotation Yrotation
          JOINT Head
          {
            OFFSET -0.0001 12.643 3.4389
            CHANNELS 3 Zrotation Xrotation Yrotation
            End Site
            {
              OFFSET 0.0001 17.6655 0.5274
            }
          }
        }
        JOINT LeftCollar
        {
          OFFSET 2.2603 21.606 7.4023
          CHANNELS 3 Zrotation Xrotation Yrotation
          JOINT LeftShoulder
          {
            OFFSET 13.5163 -1.1332 -5.0146
            CHANNELS 3 Zrotation Xrotation Yrotation
            JOINT LeftElbow
            {
              OFFSET -0.0995 -28.05 -0.2431
              CHANNELS 3 Zrotation Xrotation Yrotation
              JOINT LeftWrist
              {
                OFFSET 0.0679 -23.3996 -0.1402
                CHANNELS 3 Zrotation Xrotation Yrotation
                JOINT LeftFinger1
                {
                  OFFSET 0.7932 -9.069 2.5189
                  CHANNELS 3 Zrotation Xrotation Yrotation
                  JOINT LeftFinger11
                  {
                    OFFSET -0.8272 -3.3923 0.5977
                    CHANNELS 3 Zrotation Xrotation Yrotation
                    JOINT LeftFinger12
                    {
                      OFFSET -0.5649 -2.3158 0.4082
                      CHANNELS 3 Zrotation Xrotation Yrotation
                      End Site
                      {
                        OFFSET -0.4919 -1.6479 0.2673
                      }
                    }
                  }
                }
                JOINT LeftFinger2
                {
                  OFFSET 0.9159 -9.2044 0.2193
                  CHANNELS 3 Zrotation Xrotation Yrotation
                  JOINT LeftFinger21
                  {
                    OFFSET 0.0117 -4.1944 -0.0248
                    CHANNELS 3 Zrotation Xrotation Yrotation
                    JOINT LeftFinger22
                    {
                      OFFSET 0.0071 -2.3249 -0.0142
                      CHANNELS 3 Zrotation Xrotation Yrotation
                      End Site
                      {
                        OFFSET -0.1475 -2.0882 0.0028
                      }
                    }
                  }
                }
                JOINT LeftFinger3
                {
                  OFFSET 0.6113 -8.7231 -2.0637
                  CHANNELS 3 Zrotation Xrotation Yrotation
                  JOINT LeftFinger31
                  {
                    OFFSET -0.1927 -3.8059 -0.2383
                    CHANNELS 3 Zrotation Xrotation Yrotation
                    JOINT LeftFinger32
                    {
                      OFFSET -0.1091 -2.1688 -0.1362
                      CHANNELS 3 Zrotation Xrotation Yrotation
                      End Site
                      {
                        OFFSET -0.2358 -1.9176 -0.0906
                      }
                    }
                  }
                }
                JOINT LeftFinger4
                {
                  OFFSET -0.6151 -8.0947 -3.5641
                  CHANNELS 3 Zrotation Xrotation Yrotation
                  JOINT LeftFinger41
                  {
                    OFFSET -0.4882 -2.341 -0.6462
                    CHANNELS 3 Zrotation Xrotation Yrotation
                    JOINT LeftFinger42
                    {
                      OFFSET -0.3575 -1.7167 -0.4742
                      CHANNELS 3 Zrotation Xrotation Yrotation
                      End Site
                      {
                        OFFSET -0.4187 -1.5237 -0.3496
                      }
                    }
                  }
                }
                JOINT LeftFinger0
                {
                  OFFSET -1.42 -1.8761 1.4223
                  CHANNELS 3 Zrotation Xrotation Yrotation
                  JOINT LeftFinger01
                  {
                    OFFSET -1.1471 -3.4929 2.6334
                    CHANNELS 3 Zrotation Xrotation Yrotation
                    JOINT LeftFinger02
                    {
                      OFFSET -0.823 -2.3 1.6571
                      CHANNELS 3 Zrotation Xrotation Yrotation
                      End Site
                      {
                        OFFSET -0.5822 -1.6914 1.1582
                      }
                    }
                  }
                }
              }
            }
          }
        }
        JOINT RightCollar
        {
          OFFSET -2.2603 21.606 7.4023
          CHANNELS 3 Zrotation Xrotation Yrotation
          JOINT RightShoulder
          {
            OFFSET -13.5187 -1.1334 -5.0155
            CHANNELS 3 Zrotation Xrotation Yrotation
            JOINT RightElbow
            {
              OFFSET 0.0994 -28.0499 -0.2431
              CHANNELS 3 Zrotation Xrotation Yrotation
              JOINT RightWrist
              {
                OFFSET -0.0679 -23.3996 -0.1402
                CHANNELS 3 Zrotation Xrotation Yrotation
                JOINT RightFinger1
                {
                  OFFSET -0.7932 -9.0691 2.5189
                  CHANNELS 3 Zrotation Xrotation Yrotation
                  JOINT RightFinger11
                  {
                    OFFSET 0.8272 -3.3923 0.5977
                    CHANNELS 3 Zrotation Xrotation Yrotation
                    JOINT RightFinger12
                    {
                      OFFSET 0.565 -2.3158 0.4082
                      CHANNELS 3 Zrotation Xrotation Yrotation
                      End Site
                      {
                        OFFSET 0.4919 -1.6479 0.2673
                      }
                    }
                  }
                }
                JOINT RightFinger2
                {
                  OFFSET -0.916 -9.2044 0.2193
                  CHANNELS 3 Zrotation Xrotation Yrotation
                  JOINT RightFinger21
                  {
                    OFFSET -0.0117 -4.1944 -0.0248
                    CHANNELS 3 Zrotation Xrotation Yrotation
                    JOINT RightFinger22
                    {
                      OFFSET -0.0071 -2.3249 -0.0142
                      CHANNELS 3 Zrotation Xrotation Yrotation
                      End Site
                      {
                        OFFSET 0.1475 -2.0882 0.0028
                      }
                    }
                  }
                }
                JOINT RightFinger3
                {
                  OFFSET -0.6113 -8.7231 -2.0637
                  CHANNELS 3 Zrotation Xrotation Yrotation
                  JOINT RightFinger31
                  {
                    OFFSET 0.1927 -3.8059 -0.2383
                    CHANNELS 3 Zrotation Xrotation Yrotation
                    JOINT RightFinger32
                    {
                      OFFSET 0.1091 -2.1688 -0.1362
                      CHANNELS 3 Zrotation Xrotation Yrotation
                      End Site
                      {
                        OFFSET 0.2358 -1.9176 -0.0906
                      }
                    }
                  }
                }
                JOINT RightFinger4
                {
                  OFFSET 0.6151 -8.0947 -3.564
                  CHANNELS 3 Zrotation Xrotation Yrotation
                  JOINT RightFinger41
                  {
                    OFFSET 0.4882 -2.341 -0.6462
                    CHANNELS 3 Zrotation Xrotation Yrotation
                    JOINT RightFinger42
                    {
                      OFFSET 0.3574 -1.7166 -0.4742
                      CHANNELS 3 Zrotation Xrotation Yrotation
                      End Site
                      {
                        OFFSET 0.4187 -1.5237 -0.3496
                      }
                    }
                  }
                }
                JOINT RightFinger0
                {
                  OFFSET 1.4199 -1.8761 1.4221
                  CHANNELS 3 Zrotation Xrotation Yrotation
                  JOINT RightFinger01
                  {
                    OFFSET 1.1472 -3.4929 2.6336
                    CHANNELS 3 Zrotation Xrotation Yrotation
                    JOINT RightFinger02
                    {
                      OFFSET 0.8229 -2.3 1.6571
                      CHANNELS 3 Zrotation Xrotation Yrotation
                      End Site
                      {
                        OFFSET 0.5822 -1.6914 1.1582
                      }
                    }
                  }
                }
              }
            }
          }
        }
      }
    }
  }
  JOINT RightHip
  {
    OFFSET -9.412 3.9771 -0.7758
    CHANNELS 3 Zrotation Xrotation Yrotation
    JOINT RightKnee
    {
      OFFSET -0.7531 -40.938 0
      CHANNELS 3 Zrotation Xrotation Yrotation
      JOINT RightAnkle
      {
        OFFSET 0 -40.1986 0
        CHANNELS 3 Zrotation Xrotation Yrotation
        JOINT RightToe
        {
          OFFSET 0 -4.4182 9.239
          CHANNELS 3 Zrotation Xrotation Yrotation
          End Site
          {
            OFFSET 0 0 6.1981
          }
        }
      }
    }
  }
  JOINT LeftHip
  {
    OFFSET 9.4119 3.9773 -0.7758
    CHANNELS 3 Zrotation Xrotation Yrotation
    JOINT LeftKnee
    {
      OFFSET 0.7532 -40.9383 0
      CHANNELS 3 Zrotation Xrotation Yrotation
      JOINT LeftAnkle
      {
        OFFSET 0 -40.1986 0
        CHANNELS 3 Zrotation Xrotation Yrotation
        JOINT LeftToe
        {
          OFFSET 0 -4.4182 9.239
          CHANNELS 3 Zrotation Xrotation Yrotation
          End Site
          {
            OFFSET 0 0 6.1981
          }
        }
      }
    }
  }
}
MOTION
Frames:	4
Frame Time:	0.0333333
-0.710019 61.9082 4.65194 -2.7405e-007 -5.54856 -2.60112e-008 -0.171062 2.60531 3.05595 -0.481826 5.19776 6.12916 -0.481829 5.19777 6.12918 20.8056 -27.5258 -9.54158 -0.00144709 7.9373 -10.0029 26.2496 11.1118 -87.3037 53.2169 -0.837915 32.2536 4.13553 -52.7187 70.7046 -22.5913 14.3716 -30.175 3.18055e-015 1.43125e-014 -0 3.18055e-015 3.18055e-015 3.18055e-015 4.02301e-007 1.28289e-007 3.8426e-007 3.18055e-015 1.43125e-014 -0 -0.0128215 0.00231706 8.86336e-005 9.68622e-007 3.94208e-006 -1.40589e-006 3.18055e-015 1.43125e-014 -0 -0.0160136 0.00298325 0.000847183 9.54166e-015 0 3.18055e-015 3.18055e-015 1.43125e-014 -0 -0.0125932 0.00312447 0.00282208 -6.36111e-015 -6.36111e-015 3.18055e-015 3.18055e-015 1.43125e-014 -0 3.18055e-015 3.18055e-015 3.18055e-015 4.02301e-007 1.28289e-007 3.8426e-007 0.884183 -20.8753 18.5734 -16.0636 -14.7005 -11.8702 -9.30856 -41.0627 -3.66326 65.6192 26.8142 -0.481183 -6.51466e-007 9.89899e-006 3.02437e-006 1.59028e-015 -2.5842e-015 9.54166e-015 -1.32417e-031 1.19271e-015 6.36111e-015 -6.51466e-007 9.89899e-006 3.02437e-006 0.0128903 0.00233287 -9.48194e-005 -3.31043e-032 5.96354e-016 3.18055e-015 -6.51466e-007 9.89899e-006 3.02437e-006 0.0163849 0.00305718 -0.000892505 1.59028e-015 -9.93923e-016 -3.18055e-015 -6.51466e-007 9.89899e-006 3.02437e-006 0.0145562 0.00365337 -0.00325634 -2.38542e-015 -4.17448e-015 -0 -6.51466e-007 9.89899e-006 3.02437e-006 1.59028e-015 -2.5842e-015 9.54166e-015 -1.32417e-031 1.19271e-015 6.36111e-015 -17.7462 -13.0214 -11.6441 0.443763 32.1772 0.278474 20.8041 -9.88921 -2.54204 -1.69351e-006 -1.31228e-007 -1.83268e-008 7.7806 -18.1362 13.8913 3.04293 47.2683 -2.27732 -12.5066 -22.1909 1.5081 2.01157e-006 -1.10115e-007 -4.00547e-006 
-0.709836 62.0162 4.44749 -2.33096e-007 -5.07253 -1.12681e-006 -0.183602 2.50557 3.05662 -0.501539 4.99774 6.13004 -0.501541 4.99775 6.13006 20.8413 -27.6055 -9.44159 -0.00145418 7.71913 -10.0029 26.2496 11.1118 -87.3037 53.2171 -0.838301 32.2535 4.13552 -52.7183 70.7045 -22.6062 14.3697 -30.1735 9.54167e-015 -8.92454e-006 6.36111e-015 1.21907e-005 3.47191e-006 1.82193e-007 3.18055e-015 3.18055e-015 -3.18055e-015 9.54167e-015 -8.92454e-006 6.36111e-015 -0.0127663 0.00231408 8.61587e-005 -1.77757e-006 -2.06162e-006 -1.16349e-006 9.54167e-015 -8.92454e-006 6.36111e-015 -0.0160326 0.00300147 0.000855101 -3.18055e-015 4.77083e-015 -0 9.54167e-015 -8.92454e-006 6.36111e-015 -0.0126057 0.00313092 0.00283161 -9.54166e-015 3.18055e-015 -3.18055e-015 9.54167e-015 -8.92454e-006 6.36111e-015 1.21907e-005 3.47191e-006 1.82193e-007 3.18055e-015 3.18055e-015 -3.18055e-015 0.706602 -20.7305 18.2882 -15.7909 -14.7373 -11.7649 -9.17396 -41.1384 -3.56788 65.4329 26.8107 -0.303038 1.10612e-006 3.92389e-006 1.21421e-006 -3.91974e-006 1.68911e-006 -6.20873e-006 -2.73097e-007 -2.07006e-006 8.54632e-006 1.10612e-006 3.92389e-006 1.21421e-006 0.0129187 0.00228975 -8.89286e-005 1.29098e-006 1.01388e-006 -1.09991e-006 1.10612e-006 3.92389e-006 1.21421e-006 0.016321 0.00301784 -0.000867766 1.29098e-006 -5.05482e-006 -1.09989e-006 1.10612e-006 3.92389e-006 1.21421e-006 0.0145588 0.00368245 -0.00325675 1.79484e-006 -6.22588e-006 -2.45149e-006 1.10612e-006 3.92389e-006 1.21421e-006 -3.91974e-006 1.68911e-006 -6.20873e-006 -2.73097e-007 -2.07006e-006 8.54632e-006 -17.7103 -13.311 -11.6341 0.576079 31.5934 0.212162 20.6972 -9.55739 -2.82315 -1.2921e-015 -1.12479e-007 3.18055e-015 7.76785 -18.5465 13.9029 2.91625 46.8798 -2.18444 -12.4125 -21.8825 1.63166 -8.46136e-007 6.59936e-008 -1.03419e-008 
-0.709646 62.1245 4.24275 -1.6338e-007 -4.59655 -1.5649e-007 -0.196135 2.40585 3.05726 -0.521233 4.79777 6.13083 -0.521234 4.79778 6.13084 20.8773 -27.6853 -9.34154 -0.00145421 7.50087 -10.0029 26.2497 11.1117 -87.3038 53.2169 -0.838006 32.2536 4.13547 -52.7187 70.7045 -22.621 14.3679 -30.1719 1.5458e-006 2.27667e-005 1.38544e-005 -9.54166e-015 -1.27222e-014 -0 3.18055e-015 1.59028e-015 -0 1.5458e-006 2.27667e-005 1.38544e-005 -0.0128203 0.00231145 7.66345e-005 3.18055e-015 6.36111e-015 3.18055e-015 1.5458e-006 2.27667e-005 1.38544e-005 -0.0161002 0.00299722 0.000858338 0 0 -0 1.5458e-006 2.27667e-005 1.38544e-005 -0.0125515 0.00311055 0.00282306 6.36111e-015 3.18055e-015 -6.36111e-015 1.5458e-006 2.27667e-005 1.38544e-005 -9.54166e-015 -1.27222e-014 -0 3.18055e-015 1.59028e-015 -0 0.529935 -20.585 18.0037 -15.5183 -14.7735 -11.6595 -9.03889 -41.2139 -3.47212 65.2466 26.8066 -0.124917 1.59028e-015 5.96354e-016 -3.18055e-015 1.59028e-015 5.96354e-016 3.18055e-015 2.38542e-015 -1.98785e-015 3.18055e-015 1.59028e-015 5.96354e-016 -3.18055e-015 0.0129443 0.00228646 -7.95144e-005 -3.97569e-015 3.97569e-016 -3.18055e-015 1.59028e-015 5.96354e-016 -3.18055e-015 0.0163536 0.00302667 -0.000866134 3.31043e-032 5.96354e-016 -3.18055e-015 1.59028e-015 5.96354e-016 -3.18055e-015 0.0145869 0.00365485 -0.00325135 -5.29669e-031 -9.54166e-015 -3.18055e-015 1.59028e-015 5.96354e-016 -3.18055e-015 1.59028e-015 5.96354e-016 3.18055e-015 2.38542e-015 -1.98785e-015 3.18055e-015 -17.6733 -13.6 -11.624 0.704513 31.0081 0.14881 20.5928 -9.22458 -3.10362 8.4673e-007 2.90673e-007 9.17423e-009 7.75523 -18.9578 13.9145 2.79172 46.4922 -2.09352 -12.3193 -21.574 1.75443 -8.46132e-007 6.60681e-008 -1.03458e-008 
-0.709443 62.2334 4.03774 -2.57009e-007 -4.12064 -2.18996e-006 -0.208654 2.30611 3.0578 -0.540893 4.59778 6.13141 -0.540894 4.59779 6.13142 20.9136 -27.7649 -9.24124 -0.00145034 7.2825 -10.0029 26.2496 11.1118 -87.3037 53.2171 -0.838277 32.2535 4.13551 -52.7183 70.7045 -22.6359 14.3661 -30.1704 9.66244e-007 -1.13546e-006 -1.4075e-006 -8.82781e-032 -1.59028e-015 -3.18055e-015 5.49208e-006 6.18995e-007 -4.93696e-007 9.66244e-007 -1.13546e-006 -1.4075e-006 -0.0127962 0.00233704 9.01285e-005 5.89408e-006 1.95719e-006 -1.07642e-007 9.66244e-007 -1.13546e-006 -1.4075e-006 -0.0160108 0.00298841 0.000853583 1.29023e-005 5.67847e-006 -7.39497e-006 9.66244e-007 -1.13546e-006 -1.4075e-006 -0.0126099 0.00311454 0.00282766 9.69545e-006 1.05832e-005 4.77846e-006 9.66244e-007 -1.13546e-006 -1.4075e-006 -8.82781e-032 -1.59028e-015 -3.18055e-015 5.49208e-006 6.18995e-007 -4.93696e-007 0.354276 -20.4385 17.7201 -15.2456 -14.8094 -11.5538 -8.9034 -41.2892 -3.37596 65.0602 26.8019 0.0531699 -1.20339e-005 2.53389e-005 -1.00771e-005 2.38542e-015 2.18663e-015 3.18055e-015 3.97569e-015 6.36111e-015 6.36111e-015 -1.20339e-005 2.53389e-005 -1.00771e-005 0.0129786 0.0023119 -8.3652e-005 2.38542e-015 2.38542e-015 -3.18055e-015 -1.20339e-005 2.53389e-005 -1.00771e-005 0.0164048 0.00302054 -0.000867606 -2.38542e-015 1.59028e-015 3.18055e-015 -1.20339e-005 2.53389e-005 -1.00771e-005 0.0146076 0.00368592 -0.00326631 4.77083e-015 -7.55382e-015 -9.54166e-015 -1.20339e-005 2.53389e-005 -1.00771e-005 2.38542e-015 2.18663e-015 3.18055e-015 3.97569e-015 6.36111e-015 6.36111e-015 -17.635 -13.8889 -11.6138 0.828862 30.4218 0.0883327 20.491 -8.89075 -3.38353 4.07509e-015 0 -3.18055e-015 7.74288 -19.3678 13.9262 2.6684 46.1031 -2.00429 -12.2267 -21.2652 1.87647 -5.40087e-008 -2.06535e-007 -1.61571e-006 
